<svg width="129" height="52" viewBox="0 0 129 52" fill="none" xmlns="http://www.w3.org/2000/svg">
<path d="M16.6918 0.647725L4.26989 46.7969H0.204545L12.6264 0.647725H16.6918ZM35.6189 41V6.09091H47.8234C50.2552 6.09091 52.2609 6.51136 53.8405 7.35227C55.42 8.18182 56.5961 9.30114 57.3689 10.7102C58.1416 12.108 58.528 13.6591 58.528 15.3636C58.528 16.8636 58.2609 18.1023 57.7268 19.0795C57.2041 20.0568 56.5109 20.8295 55.6473 21.3977C54.795 21.9659 53.8689 22.3864 52.8689 22.6591V23C53.9371 23.0682 55.0109 23.4432 56.0905 24.125C57.17 24.8068 58.0734 25.7841 58.8007 27.0568C59.528 28.3295 59.8916 29.8864 59.8916 31.7273C59.8916 33.4773 59.4939 35.0511 58.6984 36.4489C57.903 37.8466 56.6473 38.9545 54.9314 39.7727C53.2155 40.5909 50.9825 41 48.2325 41H35.6189ZM39.8461 37.25H48.2325C50.9939 37.25 52.9541 36.7159 54.1132 35.6477C55.2836 34.5682 55.8689 33.2614 55.8689 31.7273C55.8689 30.5455 55.5677 29.4545 54.9655 28.4545C54.3632 27.4432 53.5052 26.6364 52.3916 26.0341C51.278 25.4205 49.9598 25.1136 48.4371 25.1136H39.8461V37.25ZM39.8461 21.4318H47.6871C48.9598 21.4318 50.1075 21.1818 51.1302 20.6818C52.1643 20.1818 52.9825 19.4773 53.5848 18.5682C54.1984 17.6591 54.5052 16.5909 54.5052 15.3636C54.5052 13.8295 53.9711 12.5284 52.903 11.4602C51.8348 10.3807 50.1416 9.84091 47.8234 9.84091H39.8461V21.4318ZM70.3149 6.09091V41H66.2922V6.09091H70.3149ZM88.3192 41.5455C85.9555 41.5455 83.8817 40.983 82.0976 39.858C80.3248 38.733 78.9385 37.1591 77.9385 35.1364C76.9498 33.1136 76.4555 30.75 76.4555 28.0455C76.4555 25.3182 76.9498 22.9375 77.9385 20.9034C78.9385 18.8693 80.3248 17.2898 82.0976 16.1648C83.8817 15.0398 85.9555 14.4773 88.3192 14.4773C90.6828 14.4773 92.751 15.0398 94.5237 16.1648C96.3078 17.2898 97.6942 18.8693 98.6828 20.9034C99.6828 22.9375 100.183 25.3182 100.183 28.0455C100.183 30.75 99.6828 33.1136 98.6828 35.1364C97.6942 37.1591 96.3078 38.733 94.5237 39.858C92.751 40.983 90.6828 41.5455 88.3192 41.5455ZM88.3192 37.9318C90.1146 37.9318 91.5919 37.4716 92.751 36.5511C93.9101 35.6307 94.768 34.4205 95.3248 32.9205C95.8817 31.4205 96.1601 29.7955 96.1601 28.0455C96.1601 26.2955 95.8817 24.6648 95.3248 23.1534C94.768 21.642 93.9101 20.4205 92.751 19.4886C91.5919 18.5568 90.1146 18.0909 88.3192 18.0909C86.5237 18.0909 85.0464 18.5568 83.8873 19.4886C82.7282 20.4205 81.8703 21.642 81.3135 23.1534C80.7567 24.6648 80.4782 26.2955 80.4782 28.0455C80.4782 29.7955 80.7567 31.4205 81.3135 32.9205C81.8703 34.4205 82.7282 35.6307 83.8873 36.5511C85.0464 37.4716 86.5237 37.9318 88.3192 37.9318ZM116.892 51.3636C114.948 51.3636 113.278 51.1136 111.88 50.6136C110.483 50.125 109.318 49.4773 108.386 48.6705C107.465 47.875 106.733 47.0227 106.187 46.1136L109.392 43.8636C109.755 44.3409 110.215 44.8864 110.772 45.5C111.329 46.125 112.09 46.6648 113.056 47.1193C114.034 47.5852 115.312 47.8182 116.892 47.8182C119.005 47.8182 120.75 47.3068 122.125 46.2841C123.5 45.2614 124.187 43.6591 124.187 41.4773V36.1591H123.846C123.551 36.6364 123.13 37.2273 122.585 37.9318C122.051 38.625 121.278 39.2443 120.267 39.7898C119.267 40.3239 117.914 40.5909 116.21 40.5909C114.096 40.5909 112.198 40.0909 110.517 39.0909C108.846 38.0909 107.522 36.6364 106.545 34.7273C105.579 32.8182 105.096 30.5 105.096 27.7727C105.096 25.0909 105.568 22.7557 106.511 20.767C107.454 18.767 108.767 17.2216 110.448 16.1307C112.13 15.0284 114.073 14.4773 116.278 14.4773C117.983 14.4773 119.335 14.7614 120.335 15.3295C121.346 15.8864 122.119 16.5227 122.653 17.2386C123.198 17.9432 123.619 18.5227 123.914 18.9773H124.323V14.8182H128.21V41.75C128.21 44 127.698 45.8295 126.676 47.2386C125.664 48.6591 124.301 49.6989 122.585 50.358C120.88 51.0284 118.983 51.3636 116.892 51.3636ZM116.755 36.9773C118.369 36.9773 119.733 36.608 120.846 35.8693C121.96 35.1307 122.806 34.0682 123.386 32.6818C123.965 31.2955 124.255 29.6364 124.255 27.7045C124.255 25.8182 123.971 24.1534 123.403 22.7102C122.835 21.267 121.994 20.1364 120.88 19.3182C119.767 18.5 118.392 18.0909 116.755 18.0909C115.051 18.0909 113.63 18.5227 112.494 19.3864C111.369 20.25 110.522 21.4091 109.954 22.8636C109.397 24.3182 109.119 25.9318 109.119 27.7045C109.119 29.5227 109.403 31.1307 109.971 32.5284C110.551 33.9148 111.403 35.0057 112.528 35.8011C113.664 36.5852 115.073 36.9773 116.755 36.9773Z" fill="currentColor"/>
</svg>
